<?xml version="1.0" standalone="no"?>
<!DOCTYPE svg PUBLIC "-//W3C//DTD SVG 20010904//EN"
 "http://www.w3.org/TR/2001/REC-SVG-20010904/DTD/svg10.dtd">
<svg version="1.0" xmlns="http://www.w3.org/2000/svg"
 width="56.000000pt" height="38.000000pt" viewBox="0 0 56.000000 38.000000"
 preserveAspectRatio="xMidYMid meet">

<g transform="translate(0.000000,38.000000) scale(0.100000,-0.100000)"
fill="#000000" stroke="none">
<path d="M30 305 l0 -25 260 0 260 0 0 25 0 25 -260 0 -260 0 0 -25z"/>
<path d="M30 180 l0 -30 258 2 257 3 0 25 0 25 -257 3 -258 2 0 -30z"/>
<path d="M30 55 l0 -25 260 0 260 0 0 25 0 25 -260 0 -260 0 0 -25z"/>
</g>
</svg>
